#define mini-textedit_width 15
#define mini-textedit_height 15
static unsigned char mini-textedit_bits[] = {
  0x0e, 0x00, 0x11, 0x00, 0x21, 0x00, 0x49, 0x00, 0x82, 0x00, 0x24, 0x01,
  0x08, 0x02, 0x90, 0x04, 0x20, 0x08, 0x40, 0x12, 0x84, 0x20, 0x7f, 0x49,
  0x00, 0x62, 0x48, 0x54, 0xf7, 0x7b, };
