/* XPM */
static char * textedit_xpm[] = {
"25 32 11 1",
" 	c #28A228A228A2",
".	c #30C230C230C2",
"X	c None",
"o	c #000000000000",
"O	c #FFFFFFFFFFFF",
"+	c #18610C300820",
"@	c #FFFFFBEEFFFF",
"#	c #082008200820",
"$	c #FFFFBAEA28A2",
"%	c #861782078617",
"&	c #9E799A699E79",
" .  .  .  .  .  .  .XXXXX",
"oOOOOOOOOOOOOOOOOO+@+XXXX",
"oOOOOOOOOOOOOOOOOO#@@#XXX",
"oOOoooOOOOOOOOOOOOo@@@oXX",
"oOo$$$oOOOOOOOOOOOooooooX",
"oOo$$$$oOOOOOOOOOO@%%%%oX",
"oOo$$$$$oOOOOOOOOO@@@@@o%",
"oOOo$$$$$oOOOoooooooo@@o%",
"oOOOo$$$$$oOOOOOOO@@@@@o%",
"oOOOOo$$$$$oOOOoooooo@@o%",
"oOOOOOo$$$$$oOOOOO@@@@@o%",
"oOOOOOOo$$$$$oOOOO@@@@@o%",
"oOOOOOOOo$$$$$oOOO@@@@@o%",
"oOOOOOOOOo$$$$$oOO@@@@@o%",
"oOOoooooOOo$$$$&oO@@@@@o%",
"oOOOOOOOOOOo$$&&oO@@@@@o%",
"oOOoooooooOOo&&&oOooo@@o%",
"oOOOOOOOOOOOOooooO@@@@@o%",
"oOOoooooooooOOOOOOooo@@o%",
"o@@@@@@@@@@@@@@@@@@@@@@o%",
"o@@oooooooooooooooooo@@o%",
"o@@@@@@@@@@@@@@@@@@@@@@o%",
"o@@oooooooooooooooooo@@o%",
"o@@@@@@@@@@@@@@@@@@@@@@o%",
"o@@oooOooO@ooo@oooOO@@@o%",
"o@OoOOOoOoOOo@@@oO@@@@@o%",
"oOOoo@OoOoO@o@@@oO@@@@@o%",
"o@@oOOOoOo@@o@@@oO@@@@@o%",
"o@@oooOooO@ooo@@oO@o@@@o%",
"#@@@@@@@@@@@@@@@@@@@@@@#%",
"++++++++++++++++++++++++%",
"X%%%%%%%%%%%%%%%%%%%%%%%%"};
